# xmcd
#
# Track frame offsets:
#	150
#	10118
#	40490
#	52229
#
# Disc length: 1009 seconds
#
# Revision: 3
# Processed by: cddbd v1.5.2PL0 Copyright (c) Steve Scherf et al.
# Submitted via: audiograbber 1.83.01
#
DISCID=3003ef04
DTITLE=Robert Waters - I've Seen The Invisible
DYEAR=2012
DGENRE=Electronic
TTITLE0=I've Seen The Invisible
TTITLE1=Ninety 4 Seconds Left Over
TTITLE2=Puzzle Di Sogni
TTITLE3=Memory Hunter
EXTD=Alien Registration Card Records ARCR208
EXTT0=
EXTT1=
EXTT2=
EXTT3=
PLAYORDER=
